<svg xmlns="http://www.w3.org/2000/svg" width="640" height="360" viewBox="0 0 640 360">
  <rect width="640" height="360" rx="20" fill="#fbf5ec"/>
  <rect x="18" y="18" width="604" height="324" rx="14" fill="#ffffff" stroke="#d7e5f1"/>
  <rect x="18" y="18" width="604" height="38" rx="14" fill="#f5f8fb"/>
  <circle cx="44" cy="37" r="6" fill="#e9b5b5"/>
  <circle cx="66" cy="37" r="6" fill="#efd9a4"/>
  <circle cx="88" cy="37" r="6" fill="#b9dcb5"/>
  <rect x="112" y="28" width="178" height="18" rx="9" fill="#e7eef5"/>
  <text x="36" y="86" font-family="Arial, sans-serif" font-size="15" font-weight="700" fill="#574734">Bauhaus-Archiv</text>
  <text x="36" y="108" font-family="Arial, sans-serif" font-size="10" fill="#6b8398">bauhaus.de</text>

  <rect x="36" y="126" width="172" height="84" rx="10" fill="#d9a55f" opacity="0.22"/>
  <rect x="220" y="126" width="172" height="84" rx="10" fill="#ebf1f6"/>
  <rect x="404" y="126" width="190" height="84" rx="10" fill="#ebf1f6"/>
  <rect x="36" y="224" width="172" height="84" rx="10" fill="#ebf1f6"/>
  <rect x="220" y="224" width="172" height="84" rx="10" fill="#d9a55f" opacity="0.15"/>
  <rect x="404" y="224" width="190" height="84" rx="10" fill="#ebf1f6"/>
</svg>