<svg xmlns="http://www.w3.org/2000/svg" viewBox="0 0 520 300"><defs><linearGradient id="sky" y1="0" y2="1"><stop offset="0" stop-color="#c9dff1"/><stop offset="1" stop-color="#fff1dc"/></linearGradient></defs><rect width="520" height="300" fill="url(#sky)"/><path d="M0 230 C100 190 165 215 260 175 C350 135 420 158 520 120 L520 300 L0 300Z" fill="#9fb1bf" opacity=".6"/><rect y="235" width="520" height="65" fill="#d2b98d" opacity=".55"/><g transform="translate(150 52)"><ellipse cx="110" cy="130" rx="92" ry="38" fill="#7c3e1d" opacity=".25"/><path d="M40 185 C48 55 172 55 180 185Z" fill="#b66a32"/><path d="M62 185 C67 85 153 85 158 185Z" fill="#d9904b"/><path d="M110 46 L110 185" stroke="#7c3e1d" stroke-width="5"/><path d="M30 185 L190 185 L190 228 L30 228Z" fill="#efe5d5"/><rect x="54" y="197" width="32" height="31" fill="#6f8793"/><rect x="134" y="197" width="32" height="31" fill="#6f8793"/><circle cx="110" cy="205" r="17" fill="#3d5664"/><path d="M98 45 L122 45 L118 22 L102 22Z" fill="#c58a3b"/><rect x="104" y="0" width="12" height="27" fill="#915c29"/></g></svg>
