<svg xmlns="http://www.w3.org/2000/svg" viewBox="0 0 900 520" preserveAspectRatio="xMidYMid slice">
  <defs>
    <linearGradient id="bg" x1="0" x2="1"><stop offset="0" stop-color="#fffdfa"/><stop offset="1" stop-color="#f3f7fb"/></linearGradient>
    <filter id="blur"><feGaussianBlur stdDeviation="15"/></filter>
  </defs>
  <rect width="900" height="520" fill="url(#bg)"/>
  <g opacity=".95" filter="url(#blur)">
    <ellipse cx="390" cy="320" rx="180" ry="65" fill="#0b5ca8"/>
    <ellipse cx="525" cy="330" rx="120" ry="50" fill="#35a2d4"/>
    <ellipse cx="660" cy="315" rx="120" ry="55" fill="#f3a233"/>
    <ellipse cx="735" cy="365" rx="85" ry="45" fill="#e45b73"/>
    <ellipse cx="475" cy="380" rx="120" ry="40" fill="#1c7abb"/>
  </g>
  <g opacity=".9">
    <path d="M130 360 C330 245 445 218 815 170" fill="none" stroke="#e3eef7" stroke-width="52" stroke-linecap="round"/>
    <path d="M135 330 C310 250 460 230 800 195" fill="none" stroke="#b6d8ef" stroke-width="10" stroke-linecap="round" opacity=".6"/>
  </g>
  <g transform="rotate(-16 590 205)">
    <g transform="translate(235 90)">
      <rect x="170" y="68" width="390" height="22" rx="11" fill="#6a4b34"/>
      <rect x="140" y="60" width="85" height="38" rx="8" fill="#b8c1c8"/>
      <rect x="125" y="65" width="18" height="28" fill="#8e9aa5"/>
      <path d="M40 79 C85 45 120 58 130 79 C115 105 80 113 40 79Z" fill="#7b5130"/>
    </g>
    <g transform="translate(295 132)">
      <rect x="170" y="68" width="390" height="22" rx="11" fill="#8a603c"/>
      <rect x="140" y="60" width="85" height="38" rx="8" fill="#c5b7a4"/>
      <rect x="125" y="65" width="18" height="28" fill="#9e8b78"/>
      <path d="M35 79 C80 45 120 58 132 79 C110 112 70 118 35 79Z" fill="#5e402a"/>
    </g>
    <g transform="translate(360 172)">
      <rect x="170" y="68" width="360" height="22" rx="11" fill="#5e4031"/>
      <rect x="140" y="60" width="85" height="38" rx="8" fill="#d2d8dd"/>
      <rect x="125" y="65" width="18" height="28" fill="#9ca9b4"/>
      <path d="M30 79 C80 38 116 58 130 79 C108 110 68 116 30 79Z" fill="#3f2b20"/>
    </g>
  </g>
  <g opacity=".65">
    <circle cx="360" cy="350" r="8" fill="#083d75"/><circle cx="390" cy="342" r="5" fill="#fff"/><circle cx="690" cy="355" r="7" fill="#ef9a2f"/><circle cx="745" cy="378" r="5" fill="#d94a6b"/>
  </g>
</svg>
